<?xml version="1.0" encoding="UTF-8" standalone="no"?>
<!-- Created with Inkscape (http://www.inkscape.org/) -->

<svg
   width="210mm"
   height="297mm"
   viewBox="0 0 210 297"
   version="1.1"
   id="svg1"
   sodipodi:docname="school-layout.svg"
   inkscape:version="1.3-dev (e30a5ffc, 2022-05-30)"
   xml:space="preserve"
   xmlns:inkscape="http://www.inkscape.org/namespaces/inkscape"
   xmlns:sodipodi="http://sodipodi.sourceforge.net/DTD/sodipodi-0.dtd"
   xmlns="http://www.w3.org/2000/svg"
   xmlns:svg="http://www.w3.org/2000/svg"><sodipodi:namedview
     id="namedview1"
     pagecolor="#ffffff"
     bordercolor="#000000"
     borderopacity="0.25"
     inkscape:showpageshadow="2"
     inkscape:pageopacity="0.0"
     inkscape:pagecheckerboard="0"
     inkscape:deskcolor="#d1d1d1"
     inkscape:document-units="mm"
     showgrid="false"
     inkscape:zoom="1.0885159"
     inkscape:cx="411.11021"
     inkscape:cy="437.75199"
     inkscape:window-width="1920"
     inkscape:window-height="1051"
     inkscape:window-x="-9"
     inkscape:window-y="-9"
     inkscape:window-maximized="1"
     inkscape:current-layer="svg1" /><defs
     id="defs1" /><g
     id="layer1"><path
       d="M 5.1591451,17.472909 206.88967,16.223807 206.4667,280.90768 4.7079185,283.47121 Z M 141.04626,137.54448 l 8.28656,0.0679 m -71.661823,-67.234136 1.480408,88.441586 32.357545,-0.32044 -1.05744,-87.800699 z m 87.476473,-9.473357 0.0792,31.583759 23.66039,-0.506919 -1.66572,-30.575806 z m 33.28272,81.252033 h 8.45948 v 25.31481 h -8.248 z m -57.31303,-61.524571 7.95939,-0.100527 m -7.95939,12.918149 h 8.03651 m -67.675904,84.275849 30.454154,-0.64088 0.84595,35.88934 c 0,0 -30.877127,0.64087 -31.300104,0.32044 l -0.422971,-0.32044 z m 59.216414,-127.855771 0.21149,18.265115 0.63446,110.231546 v -10.57454 0 l 7.97017,-0.33676 m -8.248,-45.50257 7.61354,0.32044 m -19.60651,-72.571616 19.46137,-0.152054 1.26892,129.13753 -21.78318,-1.28176 -2.34336,-110.788222 3.61228,-0.0842 z M 141.2623,152.07425 h 8.248 m -20.04649,-85.625485 0.017,2.530865 6.51587,-0.414071 4.67428,-0.210476 8.05975,0.420959 v 0.320446 m -7.61354,-0.640885 h 7.7479 m -7.78024,40.265537 8.21398,-0.22681 M 47.216848,161.7038 57.156749,162.34468 56.099312,28.400543 H 46.370901 Z M 61.175007,27.759658 89.091315,27.439219 89.990303,53.855198 62.020955,54.356225 Z m -15.01559,49.0274 10.785844,-0.320442 m 99.398989,134.905464 17.13045,0.64089 m 0.42299,29.80095 -16.07303,-0.32044 m -42.08596,-46.52301 0.64525,23.4513 c 0,0 14.50341,1.26371 13.5244,-0.96132 l 0.42298,0.96132 -0.13605,-23.51662 z M 46.582378,94.731734 h 10.362874 m 100.196418,132.982816 16.756,1.28176 M 46.793867,128.69843 H 57.15674 m -10.78585,-17.62423 10.574362,0.32044 m -6.455014,149.32132 2.859732,-1.91868 c 10.872177,-7.29449 17.341947,0.96132 17.341947,0.96132 l 0.845948,-33.64625 -16.073022,-0.32044 -1.903385,32.68492 M 136.70371,68.642867 137.0989,176.44407 v 1.61163 M 46.582378,43.461253 H 56.945252 M 15.916738,25.837023 14.859301,234.4438 41.506689,233.80292 V 26.157462 Z m 100.244932,147.082197 5.28718,0.32044 v 6.72925 c 0,0 -3.80677,0.96133 -5.07569,0.32044 l -1.26892,-0.64088 z m 39.54811,21.46952 17.76491,0.32044 1.05745,79.78969 -15.65006,-0.96133 z m 2.53784,63.44722 h 16.28452 M 46.159407,144.72046 h 11.208821 m -10.78585,-84.596302 10.15139,-0.32044"
       style="fill:#000000;fill-opacity:0.0428572;stroke:#000000;stroke-width:0.496662;stroke-linecap:round;stroke-dasharray:none;stroke-opacity:1"
       id="path1" /><path
       style="fill:#000000;fill-opacity:0.0428572;stroke:#000000;stroke-width:1.765;stroke-linecap:round;stroke-dasharray:none"
       d="m 87.312499,17.1875 c 0,2.75 0,3.09375 0,3.09375 H 125.125 L 124.4375,16.5"
       id="path13" /><text
       xml:space="preserve"
       style="font-size:3.175px;fill:#000000;fill-opacity:0.0428572;stroke:#000000;stroke-width:1.765;stroke-linecap:round;stroke-dasharray:none"
       x="-160.875"
       y="99.34375"
       id="text14"><tspan
         id="tspan14"
         style="stroke-width:1.765"
         x="-160.875"
         y="99.34375" /></text></g><path
     style="fill:#a05a2c;stroke-width:1.29921"
     d="m 57.845872,855.3273 c 0.017,-15.96545 0.880338,-182.20525 1.918527,-369.42179 1.038189,-187.21653 1.901247,-350.77116 1.917908,-363.45472 l 0.03029,-23.061026 h 25.127146 c 13.819937,0 34.867177,0.384136 46.771657,0.853636 l 21.64451,0.85364 v 390.13267 c 0,214.57298 -0.43849,390.38674 -0.97441,390.69725 -0.53593,0.31051 -22.46014,0.98393 -48.72048,1.49649 l -47.74606,0.93194 z"
     id="path2"
     transform="scale(0.26458333)" /><path
     style="fill:#d4aa00;stroke-width:1.29921"
     d="m 300.29587,567.54303 c -1.34543,-50.14116 -5.16915,-299.26427 -4.59846,-299.59871 0.28768,-0.16859 27.56292,-0.12795 60.61165,0.0903 l 60.08858,0.39682 0.0771,34.68192 c 0.0424,19.07505 0.83344,92.85416 1.75789,163.95357 0.92444,71.09941 1.4261,129.56398 1.11479,129.92126 -0.3113,0.35728 -27.03828,0.84614 -59.39328,1.08634 l -58.82728,0.43674 z"
     id="path3"
     transform="scale(0.26458333)" /><path
     style="fill:#ffcc00;stroke-width:1.29921"
     d="m 308.78651,740.15576 c 0.30545,-35.82015 0.95742,-65.52961 1.44883,-66.02102 0.92232,-0.92233 109.86403,-3.72041 110.74017,-2.84427 0.72817,0.72817 3.74254,130.88125 3.04733,131.57646 -0.3269,0.3269 -26.51377,1.00431 -58.19303,1.50537 l -57.59865,0.91101 z"
     id="path4"
     transform="scale(0.26458333)" /><path
     style="fill:#deaa87;stroke-width:1.29921"
     d="m 235.37449,183.72101 c -0.45426,-11.01112 -1.21149,-33.02859 -1.68275,-48.9277 l -0.85683,-28.90748 h 51.25237 51.25238 l 1.56551,47.62489 c 0.86103,26.1937 1.3722,47.81821 1.13593,48.05448 -0.23628,0.23627 -23.24709,0.82253 -51.13515,1.30281 l -50.70555,0.87321 z"
     id="path5"
     transform="scale(0.26458333)" /><path
     style="fill:#deaa87;stroke-width:1.29921"
     d="m 243.43997,203.58792 c -5.98973,-0.38901 -6.0113,-0.40762 -6.77633,-5.84735 -0.4221,-3.00141 -0.98756,-14.22679 -1.25657,-24.94529 -0.26901,-10.71851 -0.82678,-30.14086 -1.2395,-43.16078 l -0.75039,-23.67258 37.2481,-0.36285 c 20.48646,-0.19957 43.1668,-0.19705 50.40076,0.006 l 13.15266,0.36844 0.84332,12.62368 c 1.75121,26.21398 2.64694,80.70212 1.34802,82.00105 -0.33543,0.33543 -19.50742,0.99467 -42.60443,1.46498 -23.09701,0.4703 -42.52606,1.09366 -43.17567,1.38523 -0.64962,0.29157 -3.8851,0.35451 -7.18997,0.13988 z"
     id="path6"
     transform="scale(0.26458333)" /><path
     style="fill:#e9c6af;stroke-width:1.29921"
     d="m 625.57087,289.82569 v -58.11003 l 39.95078,0.91564 c 21.97294,0.50359 40.087,1.02445 40.25348,1.15745 0.33147,0.26482 6.62855,111.6542 6.3338,112.03896 -0.0999,0.13044 -19.61186,0.6581 -43.35987,1.17258 l -43.17819,0.93543 z"
     id="path7"
     transform="scale(0.26458333)" /><path
     style="fill:#ffaaaa;stroke-width:1.29921"
     d="m 263.17216,975.8156 c -2.9679,-3.58978 -14.01869,-8.63039 -21.6404,-9.87085 -8.84796,-1.44005 -20.97407,0.43298 -29.63357,4.57727 -3.58731,1.71683 -6.76708,2.87681 -7.06614,2.57774 -0.53415,-0.53414 4.24976,-89.69649 5.80261,-108.14897 l 0.79267,-9.41929 h 28.58565 28.58565 l -0.95917,45.39359 c -0.52754,24.96648 -1.32838,52.53856 -1.77963,61.27129 -0.72607,14.05094 -1.03528,15.61785 -2.68767,13.61922 z"
     id="path8"
     transform="scale(0.26458333)" /><path
     style="fill:#ac9393;stroke-width:1.29921"
     d="m 449.34957,824.77964 -7.97326,-0.54561 -0.81515,-37.29418 c -0.44833,-20.5118 -1.02723,-39.77892 -1.28644,-42.81583 l -0.47128,-5.52166 h 25.82466 25.82466 v 41.41572 c 0,34.5744 -0.31087,41.67372 -1.8819,42.97756 -2.01538,1.67262 -25.34308,2.73369 -39.22129,1.784 z"
     id="path9"
     transform="scale(0.26458333)" /><path
     style="fill:#ac9393;stroke-width:1.29921"
     d="m 187.41142,610.31943 -7.47048,-0.46879 v -30.46666 -30.46666 h 16.88977 16.88976 v 25.15332 c 0,13.83432 0.37179,27.86581 0.8262,31.1811 l 0.8262,6.02779 -10.24549,-0.24566 c -5.63502,-0.13512 -13.6072,-0.45662 -17.71596,-0.71444 z"
     id="path10"
     transform="scale(0.26458333)" /><path
     style="fill:#ac9393;stroke-width:1.29921"
     d="m 178.64173,453.24979 v -32.00611 l 16.25799,0.62631 c 8.94189,0.34446 16.59244,0.96075 17.00121,1.36953 0.40878,0.40877 1.07462,14.52968 1.47966,31.3798 l 0.73643,30.63659 h -17.73764 -17.73765 z"
     id="path11"
     transform="scale(0.26458333)" /><path
     style="fill:#ac9393;stroke-width:1.29921"
     d="m 178.64173,324.15354 v -32.48031 h 6.94965 c 3.82231,0 11.4227,-0.37811 16.88976,-0.84025 l 9.94012,-0.84025 v 33.32057 33.32056 H 195.5315 178.64173 Z"
     id="path12"
     transform="scale(0.26458333)" /><path
     style="fill:#ac9393;stroke-width:1.29921"
     d="m 177.34252,195.5315 v -29.88189 h 16.88976 16.88977 v 29.06229 29.06229 l -4.87205,0.8053 c -2.67963,0.44291 -10.28002,0.81173 -16.88976,0.8196 l -12.01772,0.0143 z"
     id="path14"
     transform="scale(0.26458333)" /><path
     style="fill:#c8b7b7;stroke-width:1.29921"
     d="m 179.92665,521.30906 c -0.008,-13.04085 -0.37669,-25.90306 -0.8196,-28.58268 l -0.8053,-4.87205 h 17.70936 17.70936 v 28.58268 28.58268 h -16.88976 -16.88977 z"
     id="path15"
     transform="scale(0.26458333)" /><path
     style="fill:#c8b7b7;stroke-width:1.29921"
     d="m 178.64173,389.11417 v -29.88189 h 16.88977 16.88976 v 29.88189 29.88189 H 195.5315 178.64173 Z"
     id="path16"
     transform="scale(0.26458333)" /><path
     style="fill:#c8b7b7;stroke-width:1.29921"
     d="m 177.34252,259.05492 c 0,-25.67053 0.2647,-29.56747 2.05508,-30.2545 1.13029,-0.43374 8.65041,-0.78861 16.71138,-0.78861 h 14.6563 l 0.66136,29.55709 c 0.36374,16.2564 0.59017,29.63789 0.50318,29.73665 -0.087,0.0987 -7.90472,0.4126 -17.37273,0.69742 l -17.21457,0.51785 z"
     id="path17"
     transform="scale(0.26458333)" /><path
     style="fill:#c8b7b7;stroke-width:1.29921"
     d="m 177.34252,135.7289 v -27.32228 l 16.56496,0.36362 16.56496,0.36362 0.35116,26.95866 0.35117,26.95866 h -16.91613 -16.91612 z"
     id="path18"
     transform="scale(0.26458333)" /><path
     style="fill:#ffccaa;stroke-width:1.29921"
     d="m 534.62598,281.77417 v -21.59198 l 12.01772,0.52626 c 6.60974,0.28945 12.74852,0.97833 13.64173,1.53086 1.18573,0.73347 1.62402,6.41874 1.62402,21.06571 v 20.06112 h -13.64173 -13.64174 z"
     id="path19"
     transform="scale(0.26458333)" /><path
     style="fill:#ffccaa;stroke-width:1.29921"
     d="m 534.62452,382.29331 0.001,-26.95866 h 13.43677 13.43677 l 0.81241,26.24294 c 0.44683,14.43362 0.68523,26.36434 0.52977,26.51271 -0.15545,0.14837 -6.56824,0.47044 -14.25064,0.71571 l -13.968,0.44596 z"
     id="path20"
     transform="scale(0.26458333)" /><path
     style="fill:#ffccaa;stroke-width:1.29921"
     d="m 539.49803,518.10487 -3.57283,-0.54124 v -27.19717 -27.19717 h 13.64173 13.64173 v 27.93307 27.93307 l -10.0689,-0.19466 c -5.53789,-0.10707 -11.67667,-0.43822 -13.64173,-0.7359 z"
     id="path21"
     transform="scale(0.26458333)" /><path
     style="fill:#ffccaa;stroke-width:1.29921"
     d="m 535.9252,547.57416 v -26.02821 l 13.96653,0.36876 13.96654,0.36875 0.35227,25.65945 0.35226,25.65945 H 550.244 535.9252 Z"
     id="path22"
     transform="scale(0.26458333)" /><path
     style="fill:#ffccaa;stroke-width:1.29921"
     d="m 535.9252,604.17781 v -27.97702 h 14.31717 14.31718 l -0.35064,27.60827 -0.35064,27.60826 -13.96654,0.36876 -13.96653,0.36876 z"
     id="path23"
     transform="scale(0.26458333)" /><path
     style="fill:#ffccaa;stroke-width:1.29921"
     d="m 545.34449,672.67706 -9.41929,-0.44838 V 654.27759 636.3265 l 6.82086,-0.81928 c 3.75148,-0.4506 10.18258,-0.82436 14.29134,-0.83057 l 7.47047,-0.0113 v 5.64435 c 0,3.10439 0.38117,11.87408 0.84705,19.48819 l 0.84704,13.84384 -5.71909,-0.25815 c -3.1455,-0.14198 -9.95777,-0.45992 -15.13838,-0.70652 z"
     id="path24"
     transform="scale(0.26458333)" /><path
     style="fill:#ffb380;stroke-width:1.29921"
     d="m 535.9252,547.67246 v -25.9299 l 13.31693,0.77529 c 7.32431,0.42641 13.38966,0.84043 13.47855,0.92006 0.0889,0.0796 0.44435,11.3992 0.78989,25.15461 l 0.62827,25.00984 H 550.03202 535.9252 Z"
     id="path25"
     transform="scale(0.26458333)" /><path
     style="fill:#ffb380;stroke-width:1.29921"
     d="M 550.54134,672.67186 535.9252,672.25742 V 654.8996 c 0,-15.03646 0.29102,-17.46949 2.17611,-18.19287 1.19687,-0.45928 7.77413,-1.10139 14.61615,-1.42691 l 12.44002,-0.59184 0.054,19.47687 c 0.0297,10.71229 0.0297,19.35191 0,19.19917 -0.0297,-0.15275 -6.63129,-0.46422 -14.67017,-0.69216 z"
     id="path26"
     transform="scale(0.26458333)" /><path
     style="fill:#ffb380;stroke-width:1.29921"
     d="m 542.4426,459.60475 c -3.20381,-0.28169 -6.26425,-1.20268 -6.80097,-2.04664 -0.53672,-0.84397 -0.98481,-11.3273 -0.99575,-23.2963 L 534.62598,412.5 h 8.26355 c 4.54496,0 10.97606,-0.37179 14.29134,-0.8262 l 6.02779,-0.8262 v 24.86163 24.86164 l -7.47047,-0.22699 c -4.10876,-0.12484 -10.09177,-0.45745 -13.29559,-0.73913 z"
     id="path27"
     transform="scale(0.26458333)" /><path
     style="fill:#ffb380;stroke-width:1.29921"
     d="m 534.62598,328.70079 v -22.73622 h 13.64174 13.64173 v 22.73622 22.73622 h -13.64173 -13.64174 z"
     id="path28"
     transform="scale(0.26458333)" /><path
     style="fill:#ffb380;stroke-width:1.29921"
     d="m 615.53878,798.40266 c -11.59146,-0.45597 -21.52816,-1.28181 -22.08155,-1.8352 -1.04657,-1.04657 -3.65161,-59.01087 -2.69507,-59.96742 0.29907,-0.29907 14.68448,-0.16986 31.96758,0.28713 l 31.4238,0.83089 0.0113,24.15278 c 0.006,13.28403 0.37997,27.22217 0.83057,30.97365 l 0.81928,6.82086 -9.60026,-0.21682 c -5.28014,-0.11926 -19.08418,-0.5899 -30.67565,-1.04587 z"
     id="path29"
     transform="scale(0.26458333)" /><path
     style="fill:#ffb380;stroke-width:1.29921"
     d="m 618.94802,911.72554 -21.5638,-0.38893 -0.84762,-15.76402 c -0.46619,-8.67021 -0.84762,-19.7372 -0.84762,-24.59331 v -8.8293 l 6.17126,0.63588 c 3.39419,0.34973 16.58556,1.43087 29.31415,2.40254 12.72859,0.97167 23.33945,1.97343 23.57969,2.22614 0.24025,0.25271 0.86277,10.54461 1.38338,22.87089 l 0.94657,22.41142 -8.28611,-0.29118 c -4.55736,-0.16016 -17.98982,-0.46621 -29.8499,-0.68013 z"
     id="path30"
     transform="scale(0.26458333)" /><path
     style="fill:#ff6600;stroke-width:1.29921"
     d="m 630.11811,1034.1118 c -12.8622,-0.8913 -24.35439,-1.6806 -25.5382,-1.7539 -2.29907,-0.1426 -2.66715,-3.5434 -4.33847,-40.08428 l -0.72793,-15.91535 h 28.43415 28.43415 l 0.83468,7.98586 c 0.45908,4.39222 0.83469,17.83907 0.83469,29.88187 0,20.0615 -0.1905,21.8797 -2.27362,21.7012 -1.25049,-0.1072 -12.79725,-0.9241 -25.65945,-1.8154 z"
     id="path31"
     transform="scale(0.26458333)" /><path
     style="fill:#ff6600;stroke-width:1.29921"
     d="m 619.0748,861.12004 c -12.50492,-1.0254 -23.10693,-2.26381 -23.56002,-2.75204 -0.45309,-0.48823 -1.23563,-13.69758 -1.73898,-29.35412 l -0.91518,-28.46644 21.75947,0.85817 c 11.96771,0.47199 26.05094,0.85817 31.29607,0.85817 h 9.5366 v 30.5315 30.53149 l -6.82087,-0.17119 c -3.75148,-0.0942 -17.05217,-1.01015 -29.55709,-2.03554 z"
     id="path32"
     transform="scale(0.26458333)" /><path
     style="fill:#ff6600;stroke-width:1.29921"
     d="m 599.06377,954.59646 c -0.43398,-9.8253 -1.10636,-23.07038 -1.49418,-29.43351 l -0.70514,-11.56933 13.90571,0.85083 c 7.64814,0.46795 21.12283,0.85083 29.94376,0.85083 h 16.03805 v 28.58267 28.58268 h -28.44958 -28.44958 z"
     id="path33"
     transform="scale(0.26458333)" /><path
     style="fill:#ffccaa;stroke-width:1.29921"
     d="m 622.41012,1033.0048 -18.10169,-1.43 -0.96305,-3.6241 c -0.52968,-1.9933 -1.33206,-13.1016 -1.78307,-24.6851 -0.45101,-11.58347 -1.09119,-22.37633 -1.42261,-23.9841 l -0.60259,-2.92323 h 27.85459 27.8546 l 0.69585,3.57283 c 0.706,3.62496 1.2632,30.1114 0.97027,46.122 l -0.16045,8.7697 -8.12008,-0.194 c -4.46604,-0.1067 -16.26584,-0.8375 -26.22177,-1.624 z"
     id="path34"
     transform="scale(0.26458333)" /><path
     style="fill:#8dd35f;stroke-width:1.29921"
     d="m 19.791709,734.38 c 0.166937,-184.53695 0.677112,-409.92475 1.133724,-500.86176 l 0.830204,-165.340044 2.763914,-0.55229 c 1.520152,-0.303759 69.823347,-0.864133 151.784889,-1.245274 l 149.02095,-0.692985 0.38849,7.431767 0.38848,7.431767 75.8257,0.335333 75.8257,0.335334 -0.84061,-4.882578 c -0.46232,-2.685417 -1.15937,-6.490353 -1.54899,-8.455412 l -0.70841,-3.572834 h 62.90061 c 34.59534,0 103.33765,-0.388368 152.76071,-0.863039 l 89.8601,-0.863039 V 299.25507 535.9252 h -15.59056 -15.59055 v 49.37008 49.37007 h 14.94095 14.94094 v 212.81793 212.81792 l -132.19488,1.6042 c -72.70718,0.8823 -241.81594,3.0331 -375.79724,4.7795 -133.9813,1.7465 -245.356302,3.1847 -247.500003,3.1961 l -3.897638,0.021 0.30352,-335.52175 z m 640.778021,269.5865 c -0.14338,-62.38426 -3.30271,-267.88058 -4.13117,-268.70904 -0.44429,-0.44429 -16.4093,-1.13242 -35.47781,-1.52918 l -34.67002,-0.72139 0.77632,8.96899 c 0.42697,4.93296 3.23003,72.69538 6.22902,150.58318 2.99899,77.88779 5.67517,141.89174 5.94708,142.23094 0.53279,0.6647 39.94435,3.4324 53.28638,3.742 l 8.12008,0.1885 z M 201.63322,980.25488 c 5.57614,-3.57339 13.86888,-7.73901 18.42829,-9.25692 15.36482,-5.11518 32.36339,-1.40771 43.19136,9.42027 l 4.81921,4.81921 0.73128,-10.61085 c 0.4022,-5.83596 1.0455,-28.15021 1.42956,-49.58722 0.38407,-21.43701 1.05019,-46.3357 1.48027,-55.33042 l 0.78198,-16.35404 -31.52775,-0.88548 c -17.34027,-0.48701 -31.83041,-0.58281 -32.20033,-0.21291 -0.48067,0.48067 -6.36523,91.54184 -7.97773,123.45214 -0.0361,0.71457 -2.69552,2.96067 -5.9098,4.99134 -5.46545,3.45291 -7.44716,6.05197 -4.61445,6.05197 0.67632,0 5.79197,-2.92368 11.36811,-6.49709 z m -81.13125,-94.32897 37.35236,-0.80917 V 490.99923 96.881725 L 108.80906,96.511729 C 81.834154,96.30823 59.484958,96.323113 59.144176,96.544801 58.443981,97.000296 55.463023,635.44626 55.313872,788.40675 l -0.09734,99.82407 13.966536,-0.74787 c 7.681594,-0.41133 30.775098,-1.11201 51.318902,-1.55704 z m 369.95079,-59.15377 3.24803,-0.47293 0.39884,-35.07874 c 0.21936,-19.2933 0.0197,-39.91332 -0.44351,-45.82225 l -0.84236,-10.74352 -28.13916,0.34982 -28.13917,0.34981 0.32273,27.28347 c 0.1775,15.0059 0.67512,35.58202 1.10585,45.72473 l 0.78312,18.44126 4.091,0.55676 c 4.56083,0.6207 42.53335,0.15144 47.61463,-0.58841 z m -63.19529,-20.64377 c 0.73367,-0.73368 -2.43815,-137.58216 -3.19992,-138.06077 -0.28284,-0.1777 -17.17664,0.0632 -37.5418,0.53519 -20.36516,0.47204 -46.72481,0.92195 -58.57699,0.99978 l -21.54943,0.14152 -0.86487,67.67846 c -0.47568,37.22315 -0.4949,68.27708 -0.0427,69.00873 0.82376,1.33285 120.43749,1.03531 121.77573,-0.30291 z m 31.4523,-124.25519 c 1.4577,-0.55938 1.8611,-3.78166 1.8611,-14.86651 v -14.15234 h -7.63288 c -4.19808,0 -9.35791,-0.34501 -11.4663,-0.76669 l -3.83343,-0.76668 -1.64689,11.48518 c -0.90578,6.31687 -1.94846,12.80208 -2.31706,14.41158 -1.00862,4.40422 5.818,7.07648 15.61617,6.1129 4.15701,-0.40881 8.39569,-1.06465 9.41929,-1.45744 z m 109.61537,-26.74523 c -0.2379,-66.33188 -4.68053,-468.66052 -5.17889,-469.00435 -0.32296,-0.22281 -17.64232,-0.19063 -38.48747,0.0715 l -37.9003,0.47663 0.7489,31.71334 0.74888,31.71334 -7.02183,-3.2e-4 -7.02183,-3.1e-4 0.35948,15.91567 c 1.77162,78.43593 8.08567,387.2213 8.08556,395.4192 l -1.6e-4,10.52715 13.31693,0.83376 c 7.32431,0.45857 19.45571,1.18861 26.95866,1.62233 18.87218,1.09091 43.32477,2.70232 44.49803,2.93238 0.53593,0.10511 0.93824,-9.89406 0.89404,-22.22034 z M 217.77196,581.07283 c 0.0846,-18.75738 -0.006,-34.68897 -0.20245,-35.40354 -0.60045,-2.18943 -1.13076,-55.28537 -1.91399,-191.63386 -0.41254,-71.81397 -1.11044,-143.34062 -1.5509,-158.9481 -0.66632,-23.61078 -0.49307,-28.59202 1.03151,-29.656 1.40608,-0.98125 1.45454,-1.43207 0.20836,-1.93772 -1.22977,-0.49899 -1.62402,-7.57144 -1.62402,-29.13337 V 105.88583 H 193.6165 173.51252 l 0.60117,102.9626 c 0.33066,56.62942 0.92569,126.54998 1.32231,155.37901 0.57511,41.8036 0.38078,52.82886 -0.9598,54.45341 -1.32251,1.60264 -1.33711,2.1527 -0.0686,2.5797 2.05967,0.69325 2.37939,123.75914 0.32159,123.75914 -0.70637,0 -1.28431,0.87696 -1.28431,1.94881 0,1.07185 0.51302,1.94882 1.14003,1.94882 0.62703,0 1.5684,14.27997 2.09196,31.73327 l 0.95192,31.73328 9.27616,0.75896 c 5.10189,0.41743 11.61474,0.94765 14.473,1.17825 2.85827,0.23061 7.6816,0.51756 10.71851,0.63769 l 5.52165,0.2184 z m 204.91011,19.09907 c 0.46923,-0.40557 -3.57083,-333.52756 -4.05001,-333.94248 -0.15707,-0.13602 -28.86115,-0.67606 -63.78681,-1.20009 l -63.5012,-0.95278 0.80346,21.26881 c 0.44191,11.69785 1.71931,85.28751 2.83868,163.53259 1.11937,78.24508 2.31903,144.68001 2.66594,147.63318 l 0.63071,5.3694 61.98063,-0.66504 c 34.08934,-0.36577 62.17772,-0.83538 62.4186,-1.04359 z m 277.91832,-250.8494 14.61615,-0.74025 -0.0587,-5.39349 c -0.12995,-11.9437 -6.03857,-111.31358 -6.65549,-111.93049 -0.36454,-0.36455 -17.85781,-0.97512 -38.87392,-1.35682 -21.01612,-0.38171 -40.11121,-0.92627 -42.43356,-1.21014 l -4.22244,-0.51614 v 61.54014 61.54013 l 31.50591,-0.59634 c 17.32825,-0.32798 38.08317,-0.92945 46.12204,-1.3366 z M 330,205.13793 l 11.69291,-0.70281 -1.50849,-42.45378 c -0.82967,-23.34958 -1.56048,-46.43741 -1.62401,-51.3063 l -0.11553,-8.85251 -54.24212,0.90523 c -29.83317,0.49787 -54.33673,0.97363 -54.45234,1.05724 -0.17998,0.13015 3.17461,102.31919 3.38304,103.05544 0.14072,0.49709 85.12027,-0.99648 96.86654,-1.70251 z"
     id="path35"
     transform="scale(0.26458333)" /><path
     style="fill:#00ffcc;stroke-width:1.29921"
     d="m 499.55453,670.07157 c -6.06981,-0.24355 -11.58135,-0.98815 -12.24787,-1.65467 -0.92312,-0.92313 -9.4276,-354.5807 -9.78601,-406.95036 l -0.06,-8.76969 h 5.19685 c 5.11397,0 5.19685,0.0756 5.19685,4.743 v 4.74299 l 13.42771,-0.7604 13.42771,-0.7604 0.86363,140.44519 c 0.47499,77.24487 0.86363,169.58065 0.86363,205.19064 v 64.74544 l -2.92323,-0.26446 c -1.60778,-0.14544 -7.88944,-0.46371 -13.95925,-0.70728 z"
     id="path36"
     transform="scale(0.26458333)" /><path
     style="fill:#dd55ff;stroke-width:0.264583"
     d="m 165,25.09375 c 0.34375,21.312499 0.34375,21.312499 0.34375,21.312499"
     id="path37" /><path
     style="fill:#000000;stroke-width:2.565;stroke-dasharray:none"
     d="M 269.5,51.906249 C 270.1875,87.3125 270.1875,87.3125 270.1875,87.3125"
     id="path38" /><path
     style="fill:#000000;stroke-width:2.565;stroke-dasharray:none"
     d="m 246.125,70.468748 c 42.96875,0 43.3125,0 43.3125,0"
     id="path39" /><path
     style="fill:#000000;stroke-width:0.0369535"
     d="m 177.77671,30.663574 c -0.0315,0.104941 -0.0667,0.205134 -0.0784,0.222643 -0.0116,0.01753 -0.15689,0.03182 -0.32275,0.03182 h -0.30159 l 0.13134,-0.234126 c 0.14354,-0.255901 0.17211,-0.473764 0.0722,-0.550802 -0.0831,-0.06405 -0.12599,-0.01241 -0.19569,0.23564 -0.0802,0.285232 -0.14895,0.397695 -0.29331,0.47949 -0.27084,0.153441 -0.63948,0.05554 -0.8107,-0.215299 -0.0943,-0.149217 -0.10338,-0.571796 -0.0172,-0.801363 l 0.0535,-0.142486 0.27789,-0.01047 c 0.30873,-0.01162 0.31665,-0.0037 0.20442,0.200549 -0.1362,0.248065 -0.14835,0.54016 -0.0226,0.54016 0.0327,0 0.0689,-0.07621 0.0972,-0.204825 0.0945,-0.430179 0.3332,-0.638182 0.69537,-0.605845 0.10497,0.0094 0.237,0.04836 0.2934,0.08665 0.23565,0.159931 0.33119,0.586697 0.21677,0.96825 z m -2.09803,-0.382191 c -0.005,0.0026 -0.53507,0.06261 -1.17731,0.133582 l -1.16771,0.129055 -0.0479,0.356214 c -0.11817,0.879929 -0.42559,1.640994 -0.96625,2.392082 -0.12775,0.177455 -0.31045,0.403469 -0.40604,0.502254 -0.0956,0.09878 -0.17379,0.192404 -0.17379,0.208044 0,0.0156 0.0462,0.07323 0.10264,0.127976 0.0565,0.05474 0.094,0.107517 0.0835,0.117262 -0.0169,0.01565 -0.95359,-1.065805 -2.3518,-2.715069 l -0.46032,-0.542976 -0.19168,0.019 c -0.10542,0.01047 -0.2587,0.02811 -0.34061,0.03931 l -0.14894,0.02031 1.73748,1.614796 c 0.95562,0.888136 1.75042,1.607369 1.76624,1.598287 0.0385,-0.02204 0.34016,0.347982 0.31483,0.386081 -0.0226,0.03387 -0.01,0.04198 -0.40294,-0.252294 -0.16174,-0.12103 -0.30459,-0.220046 -0.31741,-0.220046 -0.0128,0 -0.13306,0.08649 -0.26716,0.19219 -0.86804,0.684268 -1.91891,1.110306 -3.06941,1.244392 l -0.38292,0.0446 -0.13103,1.067204 c -0.1118,0.91058 -0.16282,1.163041 -0.22366,1.106512 -0.008,-0.0075 -0.27871,-2.128654 -0.27871,-2.184917 0,-0.0052 -0.0587,-0.0096 -0.13036,-0.0096 -0.25855,0 -1.00851,-0.14078 -1.38677,-0.260308 -0.70667,-0.223317 -1.2971,-0.528268 -1.90524,-0.984031 -0.20565,-0.154122 -0.31262,-0.21318 -0.34502,-0.190463 -0.0258,0.01816 -0.17951,0.132112 -0.34153,0.253341 -0.32263,0.241412 -0.42567,0.239261 -0.21489,-0.0047 0.0712,-0.08243 0.19285,-0.222914 0.27016,-0.312189 l 0.14059,-0.162328 -0.23815,-0.265427 c -0.73513,-0.819316 -1.20156,-1.831231 -1.32585,-2.876372 -0.0194,-0.162862 -0.0413,-0.301009 -0.0488,-0.306987 -0.007,-0.006 -0.53541,-0.0642 -1.1732,-0.1294 -0.81534,-0.08334 -1.15964,-0.131399 -1.15964,-0.161873 0,-0.05321 0.0433,-0.05963 1.29761,-0.192284 0.55556,-0.05876 1.02564,-0.11576 1.04462,-0.126668 0.019,-0.01089 0.0346,-0.09021 0.0346,-0.17622 0,-0.232138 0.14167,-0.871627 0.27512,-1.241828 0.21994,-0.610188 0.63292,-1.288133 1.08903,-1.787739 l 0.20609,-0.22573 -0.0999,-0.110265 c -0.0549,-0.06065 -0.0921,-0.117523 -0.0825,-0.126384 0.01,-0.0089 0.63788,0.709141 1.39633,1.595576 l 1.37898,1.611697 0.32189,-0.01 c 0.17704,-0.0055 0.33068,-0.01816 0.34142,-0.02811 0.0281,-0.02617 -3.41683,-3.220479 -3.45165,-3.200484 -0.028,0.01601 -0.33979,-0.341056 -0.33979,-0.389164 0,-0.05712 0.0885,-0.0075 0.40022,0.224166 l 0.33314,0.247646 0.27543,-0.215398 c 0.89991,-0.703782 1.9989,-1.134217 3.21566,-1.259482 l 0.21846,-0.02246 0.022,-0.14906 c 0.0121,-0.08198 0.0644,-0.50171 0.11633,-0.932731 0.13157,-1.09293 0.13042,-1.086466 0.19382,-1.086466 0.0303,0 0.0547,0.02 0.0541,0.04454 -5.9e-4,0.0245 0.0549,0.512665 0.12317,1.084848 l 0.12423,1.040315 0.21225,0.02114 c 1.21639,0.121151 2.26629,0.52608 3.2046,1.235933 l 0.3089,0.233681 0.33463,-0.246352 c 0.18405,-0.135494 0.35143,-0.236702 0.37196,-0.224909 0.0206,0.01183 -0.0693,0.144621 -0.19988,0.295172 -0.13047,0.150546 -0.25306,0.293252 -0.27242,0.317109 -0.0242,0.02983 0.0367,0.124774 0.19424,0.302789 0.75807,0.857055 1.2307,1.899145 1.3352,2.943925 0.014,0.139847 0.0359,0.254419 0.0487,0.254592 0.0407,4.77e-4 2.00975,0.210536 2.1796,0.232415 0.0896,0.01157 0.16292,0.03601 0.16292,0.05442 0,0.01842 -0.004,0.03554 -0.01,0.03795 z m -3.91977,-0.44898 c -1.77107,-0.186422 -3.25759,-0.344568 -3.30336,-0.351425 -0.0631,-0.0095 -0.17867,0.07651 -0.47851,0.356089 l -0.39527,0.368545 3.75615,-0.0042 c 2.06587,-0.0026 3.73027,-0.01 3.69863,-0.01712 -0.0317,-0.0071 -1.50656,-0.165522 -3.27764,-0.351948 z m 1.41616,0.729429 c -0.0329,0 -0.21922,0.01826 -0.41413,0.04046 l -0.35439,0.04046 -0.0663,0.363804 c -0.057,0.312796 -0.18324,0.753234 -0.27202,0.948659 -0.0208,0.04595 0.0468,0.08729 0.33515,0.204825 0.19872,0.08098 0.37884,0.147233 0.40029,0.147233 0.0503,0 0.25984,-0.601259 0.33304,-0.955328 0.0311,-0.150488 0.064,-0.305672 0.0729,-0.344855 0.009,-0.03916 0.0183,-0.155404 0.0207,-0.258267 0.004,-0.147364 -0.008,-0.187013 -0.0553,-0.187013 z m -0.5267,-2.716875 c -0.20191,-0.364641 -0.45055,-0.713993 -0.73626,-1.034521 -0.24995,-0.280397 -0.21914,-0.286432 -0.54282,0.106255 -0.15479,0.187782 -0.20895,0.279836 -0.18337,0.311666 0.0199,0.02481 0.14091,0.173268 0.26875,0.329833 0.12785,0.156566 0.31412,0.431566 0.41391,0.611121 0.0998,0.179549 0.18946,0.326452 0.19923,0.326452 0.089,0 0.74532,-0.269483 0.74532,-0.306029 0,-0.02601 -0.0741,-0.18115 -0.16476,-0.344777 z m -0.41985,2.823543 c -0.14407,-3.2e-4 -2.83858,0.28481 -2.95445,0.31264 l -0.10808,0.02596 0.33808,0.39242 c 0.18596,0.215827 0.62124,0.725032 0.96731,1.131563 l 0.62921,0.739159 0.10775,-0.116346 c 0.47636,-0.514428 0.872,-1.263046 1.03103,-1.950874 0.0996,-0.430817 0.0975,-0.534277 -0.0108,-0.534523 z m 0.0119,-1.356121 c -0.0903,-0.379502 -0.31262,-0.939787 -0.49176,-1.239435 -0.13991,-0.234059 -0.54599,-0.762332 -0.61761,-0.803462 -0.0229,-0.01314 -0.43281,0.435628 -0.94777,1.037892 -0.49903,0.583619 -0.93363,1.089275 -0.96579,1.123685 -0.0321,0.03439 -0.0514,0.06834 -0.0428,0.07542 0.009,0.0071 0.42976,0.05552 0.93578,0.107652 0.50602,0.05213 1.20467,0.126098 1.55257,0.164365 0.34789,0.03831 0.63683,0.06987 0.64211,0.07024 0.0311,0.0026 -0.002,-0.273362 -0.0649,-0.53636 z m -1.19826,-2.592039 c -0.40698,0.30148 -1.19224,0.882839 -1.74505,1.291918 l -1.00509,0.743776 0.0242,0.217173 c 0.0483,0.434722 -0.10892,0.540815 1.77758,-1.199335 0.93951,-0.86664 1.70374,-1.581549 1.69828,-1.588683 -0.005,-0.0071 -0.34289,0.233681 -0.74987,0.535151 z m 0.10703,7.177878 c -0.17723,-0.130516 -0.33441,-0.237293 -0.34928,-0.237293 -0.0149,0 -0.10929,0.06398 -0.2098,0.142187 -0.22095,0.171891 -0.7543,0.485363 -1.0228,0.601154 l -0.19558,0.08434 0.13231,0.3075 c 0.0728,0.169127 0.14165,0.327536 0.15307,0.352027 0.0114,0.02455 0.0416,0.04449 0.067,0.04449 0.074,0 0.67616,-0.295293 0.94501,-0.463421 0.19235,-0.120293 0.8023,-0.568451 0.8023,-0.589498 0,-0.0026 -0.14501,-0.111012 -0.32224,-0.241527 z m -1.66761,-1.230899 c -0.64109,-0.472696 -1.172,-0.853537 -1.17976,-0.846314 -0.008,0.0072 -0.0572,0.356031 -0.10993,0.775135 -0.0527,0.419092 -0.12988,1.029742 -0.17154,1.356979 -0.10781,0.846875 -0.1175,0.788361 0.12551,0.757982 0.31587,-0.03947 0.86247,-0.176115 1.19797,-0.299449 0.55506,-0.204056 1.44425,-0.760657 1.34916,-0.844525 -0.0251,-0.02219 -0.5703,-0.427116 -1.21141,-0.899808 z m 0.74896,-6.138698 c -0.50727,-0.322312 -1.26228,-0.609121 -1.84508,-0.700908 -0.45787,-0.0721 -0.44086,-0.0727 -0.44086,0.0157 0,0.106076 0.33849,2.836864 0.353,2.847808 0.006,0.0047 0.55764,-0.3941 1.22554,-0.886089 l 1.21437,-0.894527 -0.14098,-0.119513 c -0.0775,-0.06573 -0.24224,-0.183845 -0.36599,-0.262469 z m -0.66628,-1.284366 c -0.36461,-0.135152 -1.02307,-0.277889 -1.51846,-0.329147 l -0.22464,-0.02324 0.0277,0.261312 c 0.0152,0.143721 0.0388,0.324082 0.0526,0.40081 l 0.025,0.139497 0.41655,0.06517 c 0.2291,0.0358 0.55929,0.110888 0.73375,0.166768 l 0.3172,0.101596 0.15337,-0.324071 c 0.0844,-0.178245 0.15503,-0.34238 0.15704,-0.364741 0.002,-0.02235 -0.061,-0.06464 -0.14011,-0.09395 z m -1.61966,5.460063 -0.38056,-0.374032 0.002,3.4375 0.002,3.437506 0.32041,-2.582581 c 0.17623,-1.420419 0.345,-2.766919 0.37505,-2.992226 0.03,-0.225312 0.056,-0.44171 0.0578,-0.480898 0.002,-0.0437 -0.14389,-0.215702 -0.37746,-0.445269 z m -0.54185,-7.284651 c -0.0519,0.328604 -0.7232,5.829781 -0.7232,5.926148 0,0.05839 0.10985,0.192085 0.35154,0.427834 0.19335,0.188605 0.36586,0.348253 0.38335,0.354785 0.0176,0.0065 0.0296,-1.548358 0.0269,-3.455312 -0.003,-2.15281 -0.0176,-3.386163 -0.0387,-3.253455 z m -3.76125,6.862009 c -2.26538,0.0037 -3.66792,0.01826 -3.57474,0.03732 0.0843,0.01733 1.5931,0.183574 3.3528,0.369457 l 3.19946,0.337963 0.37528,-0.347411 c 0.2064,-0.191074 0.37528,-0.359957 0.37528,-0.375303 0,-0.01539 -1.67764,-0.02523 -3.72808,-0.02204 z m 3.47637,4.888419 c -0.0142,-0.159351 -0.0366,-0.305312 -0.0499,-0.324364 -0.0133,-0.019 -0.19114,-0.06062 -0.39519,-0.09237 -0.20405,-0.03177 -0.52758,-0.104537 -0.71898,-0.161737 -0.19139,-0.05719 -0.35538,-0.09287 -0.36442,-0.07928 -0.009,0.01361 -0.0858,0.173331 -0.17059,0.354995 l -0.15417,0.330289 0.12975,0.05036 c 0.39295,0.152562 1.27775,0.336497 1.61868,0.336497 0.14393,0 0.16704,-0.0096 0.15035,-0.06234 -0.0109,-0.03428 -0.0313,-0.192708 -0.0455,-0.352063 z m -0.25116,-2.025687 c -0.0875,-0.724902 -0.16449,-1.323775 -0.171,-1.33083 -0.006,-0.007 -0.55189,0.384735 -1.21196,0.870654 -0.66008,0.485912 -1.20865,0.889653 -1.21906,0.897201 -0.0287,0.02078 0.21193,0.200324 0.56609,0.422516 0.55168,0.346112 1.37534,0.634831 2.01561,0.706539 l 0.22434,0.02507 -0.0224,-0.136596 c -0.0124,-0.07513 -0.0941,-0.729703 -0.1816,-1.454609 z m 0.0716,-7.370403 c -0.72956,0.113179 -1.1896,0.245919 -1.69492,0.489053 -0.29217,0.140576 -0.8325,0.488457 -0.92894,0.598088 -0.0383,0.04355 0.1544,0.200087 1.16921,0.949988 1.15509,0.853559 1.21566,0.89305 1.22716,0.800158 0.006,-0.05374 0.0866,-0.682797 0.1776,-1.397905 0.091,-0.715109 0.16753,-1.335859 0.16999,-1.37945 0.004,-0.07019 -0.01,-0.07705 -0.1201,-0.05993 z m -0.32103,5.359272 c -0.0192,-0.01785 -3.42621,3.146153 -3.42621,3.181825 0,0.01115 0.78662,-0.560281 1.74805,-1.269841 l 1.74805,-1.290108 -0.0257,-0.302359 c -0.0141,-0.166296 -0.034,-0.31008 -0.0442,-0.319517 z m -2.43811,-0.325746 c -0.81647,-0.08389 -1.49195,-0.145437 -1.50106,-0.13678 -0.0283,0.02696 0.0781,0.572905 0.16358,0.839494 0.11333,0.353273 0.28403,0.727765 0.44987,0.986926 0.2007,0.313655 0.5545,0.741207 0.60133,0.726703 0.0218,-0.0068 0.46523,-0.508321 0.98524,-1.114548 0.83813,-0.97708 0.9364,-1.104894 0.86552,-1.125742 -0.044,-0.01293 -0.748,-0.09216 -1.56448,-0.176053 z m 0.64398,-2.48769 -0.91721,-1.072149 -0.11162,0.09862 c -0.30704,0.271274 -0.79887,1.116071 -0.95229,1.635702 -0.074,0.250593 -0.19199,0.838395 -0.17218,0.857657 0.005,0.0042 0.7186,-0.06702 1.58671,-0.158795 1.46545,-0.154938 1.57502,-0.171248 1.5311,-0.227887 -0.026,-0.03355 -0.46005,-0.543468 -0.96451,-1.13315 z m 0.64625,-2.660428 c -0.0752,-0.173891 -0.14963,-0.328405 -0.16535,-0.34336 -0.0384,-0.03654 -0.70579,0.282103 -1.02915,0.491326 -0.32786,0.212147 -0.73619,0.525572 -0.72679,0.557882 0.004,0.01356 0.15019,0.129191 0.32502,0.256995 l 0.31789,0.232378 0.34471,-0.243192 c 0.1896,-0.133755 0.5078,-0.321538 0.70711,-0.417292 0.19932,-0.09575 0.36261,-0.184103 0.36287,-0.19633 2.7e-4,-0.01225 -0.0611,-0.164517 -0.13631,-0.338407 z m -1.9083,7.321483 c -0.20122,-0.246641 -0.45709,-0.63837 -0.54568,-0.83538 -0.0305,-0.06776 -0.0777,-0.123192 -0.10493,-0.123192 -0.0441,0 -0.71743,0.240517 -0.74728,0.266939 -0.0227,0.02015 0.3486,0.67771 0.50305,0.890769 0.20151,0.277983 0.59726,0.730246 0.63898,0.730246 0.0179,0 0.14568,-0.131924 0.28388,-0.293164 0.21183,-0.247117 0.24395,-0.302207 0.20456,-0.350796 -0.0257,-0.03167 -0.13038,-0.160136 -0.23258,-0.285422 z m -1.00493,-4.596873 c -0.18845,-0.07378 -0.36132,-0.134927 -0.38414,-0.13588 -0.0904,-0.0037 -0.35371,0.937411 -0.41652,1.488547 -0.0236,0.206699 -0.0198,0.224197 0.0437,0.207694 0.0381,-0.0099 0.19012,-0.02801 0.33771,-0.04014 0.45407,-0.03753 0.47918,-0.04622 0.47918,-0.165993 0,-0.151467 0.10606,-0.607105 0.20974,-0.901111 0.0489,-0.138743 0.0854,-0.267258 0.081,-0.285588 -0.005,-0.01832 -0.16216,-0.09369 -0.35061,-0.167475 z m 5.82865,11.510705 c -0.0128,0 -0.43237,0.09618 -0.93234,0.213728 -0.49997,0.117552 -0.92153,0.213735 -0.93682,0.213735 -0.0153,0 -0.0277,-0.111591 -0.0277,-0.247978 v -0.247979 l 0.14375,-0.03471 c 0.0791,-0.01912 0.24463,-0.05871 0.36792,-0.08795 0.12327,-0.02924 0.2318,-0.06028 0.24118,-0.06905 0.009,-0.0088 -0.15187,-0.05474 -0.35831,-0.102302 l -0.37537,-0.08646 v -0.227821 -0.227824 l 0.37537,-0.08646 c 0.20644,-0.04753 0.36769,-0.09358 0.35831,-0.102292 -0.009,-0.0087 -0.11791,-0.03978 -0.24118,-0.06903 -0.12329,-0.02926 -0.28885,-0.06883 -0.36792,-0.08795 l -0.14375,-0.03475 v -0.247977 c 0,-0.136393 0.0114,-0.247986 0.0253,-0.247986 0.0139,0 0.44515,0.09844 0.95837,0.218754 l 0.93313,0.218758 v 0.2379 0.237911 l -0.38335,0.08409 c -0.21085,0.04627 -0.38336,0.09362 -0.38336,0.105255 0,0.01167 0.1682,0.06085 0.37378,0.109351 l 0.37376,0.08818 0.0113,0.240443 c 0.006,0.132248 7.3e-4,0.240451 -0.012,0.240451 z m -0.92898,-17.997264 -0.94879,-0.0096 V 21.28231 20.676738 l 0.23823,-0.01057 0.23824,-0.01057 0.011,0.366369 c 0.009,0.315842 0.0202,0.368022 0.078,0.378312 0.0603,0.01068 0.067,-0.02434 0.067,-0.346902 v -0.358826 h 0.24918 0.24918 v 0.356219 0.35622 h 0.115 0.115 v -0.374025 -0.374036 h 0.26835 0.26835 v 0.624007 0.624007 z m -9.45919,9.127449 h -0.93921 V 30.76359 30.502261 l 0.39294,-0.192849 0.39293,-0.192849 -0.39293,-0.01015 -0.39294,-0.0101 V 29.84821 29.600098 h 0.93921 0.93921 v 0.261323 0.261328 l -0.39294,0.19285 -0.39293,0.192854 0.39293,0.0101 0.39294,0.0101 v 0.248106 0.248107 z"
     id="path41-2" /></svg>
